<svg width="354" height="85" viewBox="0 0 354 85" fill="none" xmlns="http://www.w3.org/2000/svg">
<g clip-path="url(#clip0_3228_1872)">
<path d="M102.216 65.5069V65.2046C102.216 63.6652 101.01 62.7856 98.9305 62.7856C96.9844 62.7856 95.8057 63.5003 95.8057 64.6548C95.8057 65.4245 96.3539 65.9467 97.4777 66.2216L101.175 67.0738C103.203 67.5685 104.323 68.0633 105.201 68.888C106.133 69.7401 106.599 70.9221 106.599 72.3755C106.599 76.1654 103.693 78.5019 98.9579 78.5019C94.0275 78.5019 91.1802 76.1414 91.1528 72.0456H95.2609C95.3432 74.1313 96.5218 75.0659 99.0127 75.0659C101.123 75.0659 102.408 74.2962 102.408 73.0043C102.408 72.0972 101.75 71.465 100.435 71.1351L97.1214 70.3105C95.1753 69.8432 93.9727 69.3209 93.1504 68.6062C92.2184 67.8365 91.6976 66.4896 91.6976 65.0087C91.6976 61.4662 94.4078 59.3496 99.0401 59.3496C101.997 59.3496 104.08 60.2292 105.259 61.9575C105.862 62.8646 106.163 63.8542 106.328 65.5001H102.216V65.5069Z" fill="#B29966"/>
<path d="M109.144 68.994C109.391 65.9463 111.282 64.4619 115.007 64.4619C117.008 64.4619 118.539 64.9292 119.581 65.8363C120.54 66.6884 120.896 67.7605 120.896 69.7087V75.8076C120.896 77.237 120.951 77.4294 121.39 78.0891H117.419C117.254 77.6218 117.254 77.5393 117.117 77.0446C115.829 78.1166 114.9 78.4465 113.338 78.4465C110.409 78.4465 108.462 76.7972 108.462 74.2992C108.462 71.8012 110.025 70.5093 113.722 69.9045L115.832 69.5472C116.709 69.4098 117.011 69.1899 117.011 68.6401C117.011 67.8979 116.243 67.4306 114.983 67.4306C113.557 67.4306 112.79 67.9254 112.629 68.9974H109.144V68.994ZM117.114 71.7703C116.703 71.9352 116.346 72.0452 115.688 72.1826L114.291 72.485C112.893 72.8148 112.29 73.2821 112.29 74.0793C112.29 74.9589 113.03 75.4812 114.263 75.4812C115.551 75.4812 116.48 74.9314 117.11 73.8044V71.7703H117.114Z" fill="#B29966"/>
<path d="M127.848 64.8194V66.1113C129.274 64.7919 130.093 64.4346 131.463 64.4346C134.338 64.4346 136.092 66.3587 136.092 69.4889V78.0858H132.203V70.8633C132.203 69.5164 132.121 68.9941 131.792 68.4994C131.463 68.0046 130.887 67.7297 130.202 67.7297C129.544 67.7297 128.941 67.9771 128.53 68.4444C128.092 68.9392 127.955 69.4889 127.955 70.6434V78.0858H124.066V64.8194H127.848Z" fill="#B29966"/>
<path d="M145.953 67.7337H143.568V72.898C143.568 74.9871 143.65 75.1521 144.555 75.1521H145.953V78.0898H143.568C141.869 78.0898 141.022 77.8425 140.447 77.2102C139.844 76.5505 139.679 75.8358 139.679 73.7777V67.7337H137.815V64.9884H139.679V60.7861H143.568V64.9884H145.953V67.7337Z" fill="#B29966"/>
<path d="M152.199 62.9812H148.31V59.7686H152.199V62.9812ZM152.199 78.0859H148.31V64.8195H152.199V78.0859Z" fill="#B29966"/>
<path d="M155.375 68.994C155.622 65.9463 157.513 64.4619 161.237 64.4619C163.235 64.4619 164.77 64.9292 165.812 65.8363C166.771 66.6884 167.127 67.7605 167.127 69.7087V75.8076C167.127 77.237 167.182 77.4294 167.621 78.0891H163.65C163.485 77.6218 163.485 77.5393 163.348 77.0446C162.06 78.1166 161.128 78.4465 159.569 78.4465C156.639 78.4465 154.693 76.7972 154.693 74.2992C154.693 71.8012 156.256 70.5093 159.953 69.9045L162.063 69.5472C162.94 69.4098 163.242 69.1899 163.242 68.6401C163.242 67.8979 162.474 67.4306 161.217 67.4306C159.792 67.4306 159.024 67.9254 158.86 68.9974H155.375V68.994ZM163.345 71.7703C162.933 71.9352 162.577 72.0452 161.919 72.1826L160.521 72.485C159.123 72.8148 158.52 73.2821 158.52 74.0793C158.52 74.9589 159.26 75.4812 160.494 75.4812C161.779 75.4812 162.711 74.9314 163.341 73.8044V71.7703H163.345Z" fill="#B29966"/>
<path d="M182.761 64.9017V76.8247C182.761 78.9962 182.46 79.9549 181.528 80.862C180.322 82.0439 178.513 82.6487 176.241 82.6487C172.544 82.6487 170.324 81.1368 170.053 78.419H174.079C174.353 79.2436 175.121 79.6559 176.409 79.6559C177.176 79.6559 177.834 79.4635 178.242 79.1337C178.818 78.6664 178.982 78.1716 178.982 76.8247V75.945C177.803 77.0171 176.899 77.3744 175.422 77.3744C171.945 77.3744 169.45 74.7115 169.45 70.9731C169.45 67.2382 171.969 64.4619 175.313 64.4619C177.039 64.4619 178.269 65.1216 179.174 66.5235L179.092 64.9017H182.761ZM173.147 70.9182C173.147 72.8698 174.326 74.2133 176.077 74.2133C177.886 74.2133 179.006 72.9214 179.006 70.8632C179.006 68.9115 177.827 67.623 176.077 67.623C174.326 67.623 173.147 68.939 173.147 70.9182Z" fill="#B29966"/>
<path d="M199.362 71.5504C199.362 75.5602 196.405 78.4465 192.321 78.4465C188.213 78.4465 185.307 75.5636 185.307 71.4404C185.307 67.3482 188.209 64.4619 192.321 64.4619C196.511 64.4619 199.362 67.3207 199.362 71.5504ZM189.227 71.4404C189.227 73.9384 190.351 75.3403 192.348 75.3403C194.294 75.3403 195.445 73.9384 195.445 71.5229C195.445 68.9665 194.349 67.5681 192.321 67.5681C190.347 67.5681 189.227 68.9665 189.227 71.4404Z" fill="#B29966"/>
<path d="M205.577 78.0861H201.743V74.2412H205.577V78.0861Z" fill="#B29966"/>
<path d="M59.5077 12.7604L74.9294 39.5509L59.5077 66.3414H28.6608L13.2392 39.5509L28.6608 12.7604H59.5077ZM64.1606 0.734375H24.008C22.6032 0.734375 21.3046 1.48686 20.6022 2.70664L0.527645 37.5787C-0.174742 38.7984 -0.174742 40.3 0.527645 41.5232L20.6057 76.3952C21.308 77.615 22.6066 78.3675 24.0114 78.3675H64.164C65.5688 78.3675 66.8673 77.615 67.5697 76.3952L87.6477 41.5232C88.3501 40.3034 88.3501 38.8019 87.6477 37.5787L67.5663 2.70664C66.8639 1.48686 65.5653 0.734375 64.1606 0.734375Z" fill="#B29966"/>
<path d="M220.848 68.1825C219.906 67.966 219.447 67.2376 219.447 66.5366C219.447 65.6982 219.984 64.8633 221.304 64.8633C223.082 64.8633 223.942 66.4816 223.942 68.1034C223.942 71.5051 221.386 78.2809 216.27 78.2809C213.766 78.2809 212.419 76.903 212.906 73.8794C213.31 71.4501 213.714 69.5603 214.17 67.265C214.276 66.7531 214.465 65.7532 213.687 65.7532C213.067 65.7532 212.556 66.1587 211.587 67.6705L210.939 67.265C211.826 65.6467 212.851 64.8633 214.197 64.8633C215.787 64.8633 216.781 65.7532 216.404 67.9145C216 70.1547 215.732 71.2096 215.273 73.7179C214.842 76.0921 215.301 77.092 217.076 77.092C220.413 77.092 222.811 71.6116 222.811 68.9934C222.811 67.9935 222.489 67.2376 221.598 67.131L220.848 68.1825Z" fill="#B29966"/>
<path d="M231.212 76.5258C230.459 77.6597 229.623 78.2816 228.413 78.2816C226.799 78.2816 225.909 77.5532 225.909 75.9589C225.909 75.4744 226.042 74.4745 226.34 73.0692C226.823 70.8564 227.632 67.3723 227.981 65.833H225.826L225.933 65.132H230.4L228.3 75.3095C227.978 76.8488 228.218 77.3333 228.999 77.3333C229.564 77.3333 229.969 77.0103 230.64 76.0929L231.212 76.5258ZM228.009 60.9745C228.009 60.0296 228.574 59.1396 229.787 59.1396C230.623 59.1396 231.212 59.4901 231.212 60.5175C231.212 61.5449 230.647 62.3798 229.434 62.3798C228.386 62.3798 228.009 61.8129 228.009 60.9745Z" fill="#B29966"/>
<path d="M246.1 76.5529C245.534 77.4978 244.619 78.2812 243.379 78.2812C241.361 78.2812 240.768 76.8243 241.361 74.718L241.2 74.6905C240.285 76.6628 238.723 78.2812 236.407 78.2812C233.768 78.2812 232.449 76.4979 232.449 73.5842C232.449 69.7771 234.628 64.8636 239.127 64.8636C240.823 64.8636 241.82 65.726 242.358 66.7534L243.622 58.4383H241.306L241.361 57.7373H246.127L243.218 75.5564C243.03 76.7728 243.218 77.3122 243.972 77.3122C244.51 77.3122 244.969 77.0167 245.534 76.1509L246.1 76.5529ZM241.82 68.9662C241.82 67.0214 241.094 65.6985 239.316 65.6985C236.139 65.6985 235.036 69.8286 235.036 73.6357C235.036 75.9584 235.468 77.1439 237.054 77.1439C240.097 77.1473 241.82 72.0964 241.82 68.9662Z" fill="#B29966"/>
<path d="M260.582 76.5531C260.072 77.3915 259.181 78.2814 257.862 78.2814C255.655 78.2814 255.279 76.663 255.871 74.6083L255.738 74.5808C254.878 76.3881 253.343 78.2779 250.756 78.2779C248.306 78.2779 246.96 76.5496 246.96 73.6084C246.96 69.9628 249.139 64.8604 253.555 64.8604C255.118 64.8604 256.248 65.4823 256.947 66.9941L257.458 65.1593C258.266 65.1593 258.804 65.1043 259.637 64.9978C258.965 68.317 258.157 72.502 257.67 75.7972C257.537 76.7146 257.67 77.309 258.451 77.309C258.989 77.309 259.448 76.9585 260.041 76.1201L260.582 76.5531ZM256.33 69.1279C256.33 66.7261 255.361 65.6987 253.798 65.6987C250.54 65.6987 249.546 70.0728 249.546 73.6084C249.546 75.9312 250.006 77.1441 251.619 77.1441C254.473 77.1475 256.33 72.234 256.33 69.1279Z" fill="#B29966"/>
<path d="M266.452 82.4384C265.914 83.2768 266.157 83.9228 267.151 83.9228C268.576 83.9228 270.488 82.6549 273.047 78.5248C272.16 75.2056 271.002 71.0481 269.977 67.7254C269.655 66.6465 269.33 66.4575 268.874 66.4575C268.281 66.4575 267.826 67.052 267.26 68.6188L266.479 68.2958C267.205 66.3785 267.959 65.1381 269.738 65.1381C271.002 65.1381 271.81 65.894 272.348 67.6773C273.13 70.2681 274.017 73.5082 274.692 76.2639C275.662 74.8345 278.245 70.512 278.245 68.4092C278.245 67.7873 277.923 67.2478 277.409 67.2203L276.549 68.2992C275.795 68.0553 275.312 67.4884 275.312 66.6534C275.312 65.7085 275.96 64.8701 277.169 64.8701C278.677 64.8701 279.485 66.138 279.485 67.6773C279.485 70.1066 277.44 73.6972 275.799 76.2089C273.431 79.827 270.793 84.7405 267.048 84.7405C265.136 84.7405 263.899 83.6616 263.899 81.9883C263.899 80.7479 264.708 79.8545 265.917 79.8545C267.127 79.8545 267.935 80.7994 267.558 82.2838L266.452 82.4384Z" fill="#B29966"/>
<path d="M292.457 64.8633C296.226 64.8633 298.433 66.9421 298.433 71.4776C298.433 75.6626 296.226 78.2534 292.348 78.2534C288.524 78.2534 286.29 75.8241 286.29 71.6116C286.293 67.265 288.771 64.8633 292.457 64.8633ZM292.402 65.5093C289.658 65.5093 289.117 68.1825 289.117 71.4226C289.117 74.7177 289.682 77.604 292.402 77.604C295.013 77.604 295.606 75.0648 295.606 71.4742C295.606 68.2649 295.068 65.5093 292.402 65.5093Z" fill="#B29966"/>
<path d="M304.357 70.6942V77.281H307.211V77.9819H299.755V77.281H301.773V65.8357H299.755V65.1347H304.36V67.7255C304.898 65.8082 306.138 64.8633 307.67 64.8633C309.338 64.8633 310.39 65.8906 310.39 67.32C310.39 68.8868 309.554 69.4263 308.667 69.4263C307.752 69.4263 307.159 68.8044 307.159 67.7255C307.159 67.4815 307.187 67.241 307.242 66.997H308.078C308.132 66.8355 308.132 66.6741 308.132 66.5641C308.132 65.9972 307.701 65.8906 307.272 65.8906C305.703 65.8872 304.357 68.2649 304.357 70.6942Z" fill="#B29966"/>
<path d="M320.645 75.9035C319.785 77.2813 318.545 78.2537 316.417 78.2537C313.241 78.2537 311.196 76.0684 311.196 71.6944C311.196 67.2138 313.402 64.8636 316.876 64.8636C318.761 64.8636 319.919 65.6195 320.645 66.7534V58.4383H318.113V57.7373H323.229V77.2847H325.408V77.9857H320.858L320.645 75.9035ZM320.724 73.4192V69.1792C320.724 67.6948 319.432 65.6951 317.332 65.6951C315.016 65.6951 314.022 67.6399 314.022 71.581C314.022 75.0376 314.642 77.2229 317.01 77.2229C318.894 77.2263 320.724 75.7145 320.724 73.4192Z" fill="#B29966"/>
<path d="M332.462 64.8633C335.854 64.8633 337.55 66.9421 337.389 71.0172H329.043V71.3951C329.043 75.2812 329.93 77.336 332.867 77.336C335.046 77.336 336.259 75.9581 336.663 74.0408L337.444 74.1474C336.985 76.3602 335.642 78.25 332.223 78.25C328.077 78.25 326.22 75.6317 326.22 71.6906C326.216 66.9695 328.882 64.8633 332.462 64.8633ZM334.696 70.2887C334.857 67.3475 334.265 65.5093 332.219 65.5093C330.228 65.5093 329.259 67.2101 329.07 70.2887H334.696Z" fill="#B29966"/>
<path d="M343.231 65.1313V67.6705C343.851 66.3476 345.249 64.8633 347.97 64.8633C350.447 64.8633 351.955 66.1037 351.955 69.3713V77.281H354V77.9819H347.35V77.281H349.368V68.9384C349.368 66.9421 348.885 65.8322 347.213 65.8322C345.112 65.8322 343.228 67.6155 343.228 70.1238V77.2776H345.273V77.9785H338.623V77.2776H340.641V65.8322H338.623V65.1313H343.231Z" fill="#B29966"/>
</g>
<defs>
<clipPath id="clip0_3228_1872">
<rect width="354" height="84" fill="white" transform="translate(0 0.734375)"/>
</clipPath>
</defs>
</svg>
