<svg width="16" height="16" viewBox="0 0 16 16" fill="none" xmlns="http://www.w3.org/2000/svg">
<path d="M15.6094 13.7239L12.2227 10.3372C13.1375 8.95512 13.5064 7.28252 13.2578 5.64384C13.0092 4.00515 12.1609 2.51718 10.8774 1.46852C9.59393 0.419859 7.96671 -0.11475 6.31137 -0.0316163C4.65602 0.0515172 3.09055 0.746468 1.91857 1.91845C0.74659 3.09043 0.0516392 4.6559 -0.0314943 6.31124C-0.114628 7.96659 0.419981 9.59381 1.46864 10.8773C2.5173 12.1608 4.00528 13.0091 5.64396 13.2577C7.28264 13.5062 8.95524 13.1374 10.3374 12.2226L13.724 15.6092C13.9755 15.8521 14.3123 15.9865 14.6619 15.9835C15.0115 15.9804 15.3459 15.8402 15.5931 15.593C15.8403 15.3458 15.9805 15.0114 15.9836 14.6618C15.9866 14.3122 15.8522 13.9754 15.6094 13.7239ZM2.66669 6.66656C2.66669 5.87544 2.90128 5.10208 3.34081 4.44428C3.78033 3.78649 4.40505 3.2738 5.13595 2.97105C5.86686 2.6683 6.67112 2.58908 7.44705 2.74342C8.22297 2.89776 8.9357 3.27873 9.49511 3.83814C10.0545 4.39755 10.4355 5.11028 10.5898 5.8862C10.7442 6.66213 10.665 7.46639 10.3622 8.1973C10.0595 8.9282 9.54676 9.55292 8.88897 9.99244C8.23117 10.432 7.45781 10.6666 6.66669 10.6666C5.60582 10.6666 4.58841 10.2451 3.83826 9.49499C3.08811 8.74485 2.66669 7.72743 2.66669 6.66656Z" fill="black"/>
</svg>
