<svg width="20" height="21" viewBox="0 0 20 21" fill="none" xmlns="http://www.w3.org/2000/svg">
<path d="M14.1666 2.40137H5.83329C3.53211 2.40137 1.66663 4.26685 1.66663 6.56803V14.9014C1.66663 17.2026 3.53211 19.068 5.83329 19.068H14.1666C16.4678 19.068 18.3333 17.2026 18.3333 14.9014V6.56803C18.3333 4.26685 16.4678 2.40137 14.1666 2.40137Z" stroke="white" stroke-linecap="round" stroke-linejoin="round"/>
<path d="M13.3334 10.2096C13.4362 10.9032 13.3178 11.6115 12.9948 12.2338C12.6719 12.8561 12.161 13.3608 11.5347 13.676C10.9085 13.9912 10.1987 14.101 9.50653 13.9896C8.81431 13.8782 8.17484 13.5514 7.67907 13.0556C7.1833 12.5598 6.85648 11.9204 6.7451 11.2281C6.63371 10.5359 6.74343 9.8262 7.05865 9.19994C7.37386 8.57367 7.87853 8.06274 8.50086 7.73983C9.12319 7.41691 9.8315 7.29845 10.525 7.40129C11.2325 7.5062 11.8874 7.83585 12.3931 8.34155C12.8988 8.84725 13.2285 9.50219 13.3334 10.2096Z" stroke="white" stroke-linecap="round" stroke-linejoin="round"/>
<path d="M14.5834 6.15137H14.5934" stroke="white" stroke-linecap="round" stroke-linejoin="round"/>
</svg>
