<svg width="20" height="17" viewBox="0 0 20 17" fill="none" xmlns="http://www.w3.org/2000/svg">
<path d="M19.1667 1.23397C18.3687 1.79686 17.4851 2.22739 16.55 2.50897C16.0482 1.93189 15.3812 1.52288 14.6392 1.33724C13.8973 1.1516 13.1163 1.1983 12.4018 1.47101C11.6873 1.74372 11.0737 2.2293 10.6442 2.86206C10.2146 3.49483 9.98979 4.24425 10 5.00897V5.8423C8.53557 5.88027 7.08444 5.55548 5.77588 4.89684C4.46733 4.2382 3.34197 3.26616 2.50004 2.0673C2.50004 2.0673 -0.833292 9.5673 6.66671 12.9006C4.95048 14.0656 2.906 14.6497 0.833374 14.5673C8.33337 18.734 17.5 14.5673 17.5 4.98397C17.4993 4.75184 17.477 4.52029 17.4334 4.2923C18.2839 3.45354 18.8841 2.39456 19.1667 1.23397V1.23397Z" stroke="white" stroke-linecap="round" stroke-linejoin="round"/>
</svg>
