<svg width="23" height="24" viewBox="0 0 23 24" fill="none" xmlns="http://www.w3.org/2000/svg">
<path d="M21.6008 6.88655C21.487 6.43173 21.2551 6.01501 20.9287 5.67848C20.6023 5.34195 20.1928 5.09752 19.7416 4.96988C18.0933 4.56738 11.5 4.56738 11.5 4.56738C11.5 4.56738 4.90665 4.56738 3.25831 5.00822C2.80717 5.13585 2.39771 5.38028 2.07127 5.71681C1.74483 6.05335 1.51298 6.47007 1.39914 6.92488C1.09748 8.59771 0.949913 10.2947 0.958311 11.9945C0.947558 13.7071 1.09513 15.417 1.39914 17.1024C1.52465 17.5431 1.76169 17.9439 2.08737 18.2663C2.41304 18.5886 2.81635 18.8215 3.25831 18.9424C4.90665 19.3832 11.5 19.3832 11.5 19.3832C11.5 19.3832 18.0933 19.3832 19.7416 18.9424C20.1928 18.8147 20.6023 18.5703 20.9287 18.2338C21.2551 17.8973 21.487 17.4805 21.6008 17.0257C21.9002 15.3655 22.0477 13.6815 22.0416 11.9945C22.0524 10.2819 21.9048 8.57197 21.6008 6.88655V6.88655Z" stroke="white" stroke-linecap="round" stroke-linejoin="round"/>
<path d="M9.34375 15.1288L14.8542 11.9951L9.34375 8.86133V15.1288Z" stroke="white" stroke-linecap="round" stroke-linejoin="round"/>
</svg>
